{"title":"big.brother.uk.s15e04.1080i.hdtv.x264.lee","uid":10332902,"size":3055349880,"categoryP":"video","categoryS":"hd___tv_shows","magnet":"?xt=urn:btih:88d734268f5397c9c451f478a16269cf625ecb5c&amp;dn=big.brother.uk.s15e04.1080i.hdtv.x264.lee&amp;tr=udp%3A%2F%2Ftracker.openbittorrent.com%3A80&amp;tr=udp%3A%2F%2Fopen.demonii.com%3A1337&amp;tr=udp%3A%2F%2Ftracker.coppersurfer.tk%3A6969&amp;tr=udp%3A%2F%2Fexodus.desync.com%3A6969","seeders":2,"leechers":0,"uploader":"W33DandSHANE","files":1,"time":1402433186,"description":"Daily round-up of highlights, revealing how the housemates are getting on under the all-seeing eye of Big Brother, featuring the latest tasks, games, arguments, laughs, diary room visits and bedroom chit-chat. Narrated by Marcus Bentley\n\n\nComplete name : Big.Brother.UK.S15E04.1080i.HDTV.x264-LEE.mkv\nFormat : Matroska\nFormat version : Version 4 / Version 2\nFile size : 2.85 GiB\nDuration : 44mn 18s\nOverall bit rate : 9 196 Kbps\n\n\nVideo\nID : 1\nFormat : AVC\nFormat/Info : Advanced Video Codec\nFormat profile : &lt;a class=&quot;__cf_email__&quot; href=&quot;/cdn-cgi/l/email-protection&quot; data-cfemail=&quot;4f022e26210f037b617f&quot;&gt;[email&amp;#160;protected]&lt;/a&gt;&lt;script cf-hash='f9e31' type=&quot;text/javascript&quot;&gt;\n/* &lt;![CDATA[ */!function(){try{var t=&quot;currentScript&quot;in document?document.currentScript:function(){for(var t=document.getElementsByTagName(&quot;script&quot;),e=t.length;e--;)if(t[e].getAttribute(&quot;cf-hash&quot;))return t[e]}();if(t&amp;&amp;t.previousSibling){var e,r,n,i,c=t.previousSibling,a=c.getAttribute(&quot;data-cfemail&quot;);if(a){for(e=&quot;&quot;,r=parseInt(a.substr(0,2),16),n=2;a.length-n;n+=2)i=parseInt(a.substr(n,2),16)^r,e+=String.fromCharCode(i);e=document.createTextNode(e),c.parentNode.replaceChild(e,c)}}}catch(u){}}();/* ]]&gt; */&lt;/script&gt;\nFormat settings, CABAC : Yes\nFormat settings, ReFrames : 4 frames\nFormat settings, GOP : M=4, N=12\nCodec ID : V_MPEG4/ISO/AVC\nDuration : 44mn 18s\nBit rate : 8 629 Kbps\nWidth : 1 920 pixels\nHeight : 1 080 pixels\nDisplay aspect ratio : 16:9\nFrame rate mode : Constant\nFrame rate : 25.000 fps\nColor space : YUV\nChroma subsampling : 4:2:0\nBit depth : 8 bits\nScan type : Interlaced\nScan order : Top Field First\nBits/(Pixel*Frame) : 0.166\nStream size : 2.67 GiB (94%)\n\n\nAudio\nID : 2\nFormat : AC-3\nFormat/Info : Audio Coding 3\nMode extension : CM (complete main)\nFormat settings, Endianness : Big\nCodec ID : A_AC3\nDuration : 44mn 18s\nBit rate mode : Constant\nBit rate : 384 Kbps\nChannel(s) : 6 channels\nChannel positions : Front: L C R, Side: L R, LFE\nSampling rate : 48.0 KHz\nBit depth : 16 bits\nCompression mode : Lossy\nStream size : 122 MiB (4%)\nLanguage : English\nDefault : Yes\nForced : No\n","torrent":{"xt":"urn:btih:88d734268f5397c9c451f478a16269cf625ecb5c","amp;dn":"big.brother.uk.s15e04.1080i.hdtv.x264.lee","amp;tr":["udp%3A%2F%2Ftracker.openbittorrent.com%3A80","udp%3A%2F%2Fopen.demonii.com%3A1337","udp%3A%2F%2Ftracker.coppersurfer.tk%3A6969","udp%3A%2F%2Fexodus.desync.com%3A6969"],"infoHash":"88d734268f5397c9c451f478a16269cf625ecb5c","infoHashBuffer":{"type":"Buffer","data":[136,215,52,38,143,83,151,201,196,81,244,120,161,98,105,207,98,94,203,92]},"announce":[],"urlList":[]}}